<?xml version="1.0" encoding="utf-8"?>
<!-- Generator: Adobe Illustrator 19.2.0, SVG Export Plug-In . SVG Version: 6.00 Build 0)  -->
<svg version="1.1" id="Camada_1" xmlns="http://www.w3.org/2000/svg" xmlns:xlink="http://www.w3.org/1999/xlink" x="0px" y="0px"
	 viewBox="0 0 100 100" style="enable-background:new 0 0 100 100;" xml:space="preserve">
<style type="text/css">
	.st0{fill:#FFFFFF;}
</style>
<g>
	<circle class="st0" cx="42.1" cy="27.6" r="2"/>
	<path class="st0" d="M50,0C22.4,0,0,22.4,0,50c0,27.6,22.4,50,50,50c27.6,0,50-22.4,50-50C100,22.4,77.6,0,50,0z M29,58.2
		c0,2.2-1.8,3.9-3.9,3.9c-2.2,0-3.9-1.8-3.9-3.9V41.4c0-2.2,1.8-3.9,3.9-3.9c2.2,0,3.9,1.8,3.9,3.9V58.2z M68.4,40.7v2.7v22.9
		c0,2.3-1.9,4.2-4.2,4.2h-3c0.1,0.3,0.2,0.7,0.2,1.1v0.2v1.3v6.8c0,2.2-1.8,3.9-3.9,3.9c-2.2,0-3.9-1.8-3.9-3.9v-6.8v-1.3v-0.2
		c0-0.4,0.1-0.7,0.2-1.1h-7.3c0.1,0.3,0.2,0.7,0.2,1.1v0.2v1.3v6.8c0,2.2-1.8,3.9-3.9,3.9c-2.2,0-3.9-1.8-3.9-3.9v-6.8v-1.3v-0.2
		c0-0.4,0.1-0.7,0.2-1.1h-3c-2.3,0-4.2-1.9-4.2-4.2V43.4v-2.7v-3.3h0.3h36.2h0.3V40.7z M31.6,34.8c0-5.6,3.8-10.5,9.3-13.1l-0.7-1.1
		l-0.7-1.1L37.9,17c-0.2-0.3-0.1-0.7,0.2-0.9c0.3-0.2,0.7-0.1,0.9,0.2l1.8,2.6l0.7,1.1l0.7,1.1c2.4-0.9,5-1.4,7.8-1.4
		c2.8,0,5.4,0.5,7.8,1.4l0.7-1.1l0.7-1.1l1.8-2.6c0.2-0.3,0.6-0.4,0.9-0.2c0.3,0.2,0.4,0.6,0.2,0.9l-1.6,2.5l-0.7,1.1l-0.7,1.1
		c5.6,2.6,9.3,7.5,9.3,13.1H31.6z M78.9,58.2c0,2.2-1.8,3.9-3.9,3.9c-2.2,0-3.9-1.8-3.9-3.9V41.4c0-2.2,1.8-3.9,3.9-3.9
		c2.2,0,3.9,1.8,3.9,3.9V58.2z"/>
	<circle class="st0" cx="57.9" cy="27.6" r="2"/>
</g>
</svg>
