<?xml version="1.0" encoding="utf-8"?>
<!-- Generator: Adobe Illustrator 19.2.0, SVG Export Plug-In . SVG Version: 6.00 Build 0)  -->
<svg version="1.1" id="Camada_1" xmlns="http://www.w3.org/2000/svg" xmlns:xlink="http://www.w3.org/1999/xlink" x="0px" y="0px"
	 viewBox="0 0 64.3 100" style="enable-background:new 0 0 64.3 100;" xml:space="preserve">
<style type="text/css">
	.st0{fill:#FFFFFF;}
</style>
<g>
	<g>
		<path class="st0" d="M23.4,17.5h5.8v11.7H0V0h29.2v11.7h-5.8V17.5z M23.4,5.8H5.8v5.8h17.5V5.8z M5.8,17.5v5.8h17.5v-5.8H5.8z"/>
		<path class="st0" d="M35.1,0h5.8v11.7h17.5V0h5.8v17.5H52.6v11.7h-5.8V17.5H35.1V0z"/>
	</g>
	<g>
		<rect x="18.3" y="62.9" class="st0" width="9.2" height="9.3"/>
		<rect x="36.8" y="62.9" class="st0" width="9.3" height="9.3"/>
		<path class="st0" d="M0,35.1V100h64.3V35.1H0z M55.3,81.4H46v9.3h-9.3v-9.3h-9.2v9.3h-9.2v-9.3H9V62.9h9.3v-9.3h9.2v-9.3h9.2v9.3
			H46v9.3h9.2V81.4z"/>
	</g>
</g>
</svg>
